<svg width="20" height="20" viewBox="0 0 20 20" fill="none" xmlns="http://www.w3.org/2000/svg">
<path fill-rule="evenodd" clip-rule="evenodd" d="M10 18.3334C14.6024 18.3334 18.3334 14.6024 18.3334 10C18.3334 5.39764 14.6024 1.66669 10 1.66669C5.39764 1.66669 1.66669 5.39764 1.66669 10C1.66669 14.6024 5.39764 18.3334 10 18.3334ZM12.9463 7.05374C13.2718 6.7283 13.7994 6.7283 14.1249 7.05374C14.4503 7.37918 14.4503 7.90682 14.1249 8.23225L9.41385 12.9432L9.41077 12.9463C9.3266 13.0304 9.22894 13.0929 9.12469 13.1335C8.97702 13.191 8.81627 13.2049 8.66235 13.1751C8.50477 13.1446 8.35427 13.0684 8.23225 12.9463L8.22909 12.9431L5.87525 10.5893C5.54981 10.2639 5.54981 9.73619 5.87525 9.41077C6.20069 9.08535 6.72833 9.08535 7.05376 9.41077L8.82152 11.1785L12.9463 7.05374Z" fill="#035397"/>
</svg>
