<svg width="20" height="20" viewBox="0 0 20 20" fill="none" xmlns="http://www.w3.org/2000/svg">
<path fill-rule="evenodd" clip-rule="evenodd" d="M10 18.3334C14.6023 18.3334 18.3333 14.6024 18.3333 10C18.3333 5.39764 14.6023 1.66669 10 1.66669C5.39762 1.66669 1.66666 5.39764 1.66666 10C1.66666 14.6024 5.39762 18.3334 10 18.3334ZM12.9462 7.05374C13.2717 6.7283 13.7993 6.7283 14.1248 7.05374C14.4502 7.37918 14.4502 7.90682 14.1248 8.23225L9.41383 12.9432L9.41075 12.9463C9.32658 13.0304 9.22891 13.0929 9.12466 13.1335C8.977 13.191 8.81625 13.2049 8.66233 13.1751C8.50475 13.1446 8.35425 13.0684 8.23223 12.9463L8.22907 12.9431L5.87523 10.5893C5.54979 10.2639 5.54979 9.73619 5.87523 9.41077C6.20066 9.08535 6.7283 9.08535 7.05374 9.41077L8.8215 11.1785L12.9462 7.05374Z" fill="black"/>
</svg>
