<svg width="48" height="48" viewBox="0 0 48 48" fill="none" xmlns="http://www.w3.org/2000/svg">
<g clip-path="url(#clip0_481_928)">
<path d="M5 13H43C43.5304 13 44.0391 13.2107 44.4142 13.5858C44.7893 13.9609 45 14.4696 45 15V41H3V15C3 14.4696 3.21071 13.9609 3.58579 13.5858C3.96086 13.2107 4.46957 13 5 13Z" fill="#FFBE1D"/>
<path d="M1 41H47V45C47 45.5304 46.7893 46.0391 46.4142 46.4142C46.0391 46.7893 45.5304 47 45 47H3C2.46957 47 1.96086 46.7893 1.58579 46.4142C1.21071 46.0391 1 45.5304 1 45V41Z" fill="white"/>
<path d="M26 44H22C21.4696 44 20.9609 43.7893 20.5858 43.4142C20.2107 43.0391 20 42.5304 20 42H28C28 42.5304 27.7893 43.0391 27.4142 43.4142C27.0391 43.7893 26.5304 44 26 44Z" fill="#7C6F66"/>
<path d="M25 37C25 36.7348 24.8946 36.4804 24.7071 36.2929C24.5196 36.1054 24.2652 36 24 36C23.7348 36 23.4804 36.1054 23.2929 36.2929C23.1054 36.4804 23 36.7348 23 37C23 37.2652 23.1054 37.5196 23.2929 37.7071C23.4804 37.8946 23.7348 38 24 38C24.2652 38 24.5196 37.8946 24.7071 37.7071C24.8946 37.5196 25 37.2652 25 37ZM29 37C29 36.7348 28.8946 36.4804 28.7071 36.2929C28.5196 36.1054 28.2652 36 28 36C27.7348 36 27.4804 36.1054 27.2929 36.2929C27.1054 36.4804 27 36.7348 27 37C27 37.2652 27.1054 37.5196 27.2929 37.7071C27.4804 37.8946 27.7348 38 28 38C28.2652 38 28.5196 37.8946 28.7071 37.7071C28.8946 37.5196 29 37.2652 29 37ZM21 37C21 36.7348 20.8946 36.4804 20.7071 36.2929C20.5196 36.1054 20.2652 36 20 36C19.7348 36 19.4804 36.1054 19.2929 36.2929C19.1054 36.4804 19 36.7348 19 37C19 37.2652 19.1054 37.5196 19.2929 37.7071C19.4804 37.8946 19.7348 38 20 38C20.2652 38 20.5196 37.8946 20.7071 37.7071C20.8946 37.5196 21 37.2652 21 37Z" fill="white"/>
<path d="M7 44H5V46H7V44Z" fill="#7C6F66"/>
<path d="M11 44H9V46H11V44Z" fill="#7C6F66"/>
<path d="M15 44H13V46H15V44Z" fill="#7C6F66"/>
<path d="M35 44H33V46H35V44Z" fill="#7C6F66"/>
<path d="M39 44H37V46H39V44Z" fill="#7C6F66"/>
<path d="M43 44H41V46H43V44Z" fill="#7C6F66"/>
<path d="M36 7V31H12V1H30L36 7Z" fill="white"/>
<path d="M36 7H30V1L36 7Z" fill="#7C6F66"/>
<path d="M46 40V15C46 14.2044 45.6839 13.4413 45.1213 12.8787C44.5587 12.3161 43.7957 12 43 12H37V6.59L30.41 0H11V12H5C4.20435 12 3.44129 12.3161 2.87868 12.8787C2.31607 13.4413 2 14.2044 2 15V40H0V45C0 45.7957 0.31607 46.5587 0.87868 47.1213C1.44129 47.6839 2.20435 48 3 48H45C45.7957 48 46.5587 47.6839 47.1213 47.1213C47.6839 46.5587 48 45.7957 48 45V40H46ZM33.59 6H31V3.41L33.59 6ZM13 2H29V8H35V30H13V2ZM4 15C4 14.7348 4.10536 14.4804 4.29289 14.2929C4.48043 14.1054 4.73478 14 5 14H11V32H37V14H43C43.2652 14 43.5196 14.1054 43.7071 14.2929C43.8946 14.4804 44 14.7348 44 15V40H4V15ZM46 45C46 45.2652 45.8946 45.5196 45.7071 45.7071C45.5196 45.8946 45.2652 46 45 46H3C2.73478 46 2.48043 45.8946 2.29289 45.7071C2.10536 45.5196 2 45.2652 2 45V42H46V45Z" fill="black"/>
<path d="M25 9H15V11H25V9Z" fill="#7C6F66"/>
<path d="M29 13H15V15H29V13Z" fill="#7C6F66"/>
<path d="M25 17H15V19H25V17Z" fill="#7C6F66"/>
<path d="M23 28C22.45 28 22.57 28 19.29 24.71C19.1017 24.5217 18.9959 24.2663 18.9959 24C18.9959 23.7337 19.1017 23.4783 19.29 23.29C19.4783 23.1017 19.7337 22.9959 20 22.9959C20.2663 22.9959 20.5217 23.1017 20.71 23.29L23 25.59L27.29 21.29C27.4783 21.1017 27.7337 20.9959 28 20.9959C28.2663 20.9959 28.5217 21.1017 28.71 21.29C28.8983 21.4783 29.0041 21.7337 29.0041 22C29.0041 22.2663 28.8983 22.5217 28.71 22.71C23.47 27.94 23.59 28 23 28Z" fill="#FFBE1D"/>
</g>
<defs>
<clipPath id="clip0_481_928">
<rect width="48" height="48" fill="white"/>
</clipPath>
</defs>
</svg>
