<svg width="92" height="87" viewBox="0 0 92 87" fill="none" xmlns="http://www.w3.org/2000/svg">
<g clip-path="url(#clip0_463_1274)">
<path d="M86.25 47.5078L78.9101 43.8074C78.1022 43.3985 77.1478 43.3985 76.337 43.8074L60.375 51.8578L32.9101 38.0074C32.0275 37.5637 30.9867 37.6043 30.1444 38.1147L5.75 52.8786V11.6H60.375V5.79999H2.875C1.288 5.79999 0 7.09919 0 8.69999V84.1C0 85.7008 1.288 87 2.875 87H89.125C90.7149 87 92 85.7008 92 84.1V29H86.25V47.5078ZM77.625 49.6422L86.25 53.9922V64.9078L66.8035 55.1L77.625 49.6422ZM5.75 81.2V59.6414L31.7515 43.906L86.25 71.3922V81.2H5.75Z" fill="white"/>
<path d="M46 29C46 35.3974 51.1577 40.6 57.5 40.6C63.8423 40.6 69 35.3974 69 29C69 22.6026 63.8423 17.4 57.5 17.4C51.1577 17.4 46 22.6026 46 29ZM63.25 29C63.25 32.1987 60.6711 34.8 57.5 34.8C54.3289 34.8 51.75 32.1987 51.75 29C51.75 25.8013 54.3289 23.2 57.5 23.2C60.6711 23.2 63.25 25.8013 63.25 29Z" fill="white"/>
<path d="M83.375 8.7V0H77.625V8.7H69V14.5H77.625V23.2H83.375V14.5H92V8.7H83.375Z" fill="white"/>
</g>
<defs>
<clipPath id="clip0_463_1274">
<rect width="92" height="87" fill="white"/>
</clipPath>
</defs>
</svg>
