<svg width="28" height="28" viewBox="0 0 28 28" fill="none" xmlns="http://www.w3.org/2000/svg">
<g clip-path="url(#clip0_1206_79)">
<path d="M27.0633 22.1165C27.1976 22.5199 26.9522 23.2015 26.5156 23.6381L23.7462 26.4075C23.0913 27.0629 21.861 27.3153 21.0009 26.971L19.7212 26.4596C12.5536 23.5922 4.40651 15.4455 1.53957 8.2775L1.0277 6.99825C0.683821 6.13812 0.936258 4.90787 1.5912 4.25293L4.36057 1.48356C4.7972 1.0465 5.47926 0.80106 5.8822 0.93581C8.09945 1.67475 10.4996 4.07443 11.2385 6.29168C11.3728 6.69462 11.1274 7.37668 10.6908 7.81331L9.10832 9.39575C8.67126 9.83237 8.54132 10.6356 8.81738 11.1877L9.22995 12.0133C10.4729 14.4992 13.4999 17.5262 15.9858 18.7692L16.8109 19.1817C17.3635 19.4578 18.1663 19.3274 18.6029 18.8908L20.1858 17.3084C20.6224 16.8717 21.3041 16.6263 21.7074 16.7606C23.9243 17.4996 26.3244 19.8997 27.0633 22.1165Z" fill="black"/>
<path d="M12.926 5.08116L13.0283 6.20335C13.0563 6.51091 13.2668 6.72791 13.4986 6.68723C13.4986 6.68723 13.9278 6.65529 14.3601 6.6671C16.1919 6.71041 17.9366 7.46641 19.2303 8.76798C20.5319 10.0617 21.2875 11.8064 21.3347 13.6417C21.3509 14.2359 21.2848 14.8234 21.2787 14.8466C21.2035 15.1463 21.3863 15.4455 21.6873 15.5151L22.7754 15.7662C23.0764 15.8358 23.3809 15.6485 23.4544 15.3489C23.5056 15.1428 23.5913 14.3662 23.5703 13.5827C23.5108 11.1734 22.5177 8.8826 20.8128 7.18554C19.1153 5.48016 16.825 4.48704 14.4156 4.42798C13.8968 4.41398 13.3818 4.44679 13.3818 4.44679C13.1023 4.48923 12.8984 4.7736 12.926 5.08116Z" fill="black"/>
<path fill-rule="evenodd" clip-rule="evenodd" d="M12.6026 1.5234L12.7041 2.63728C12.7321 2.94484 12.9811 3.16534 13.2602 3.12903C13.2602 3.12903 13.7707 3.1019 14.2809 3.11415C17.0699 3.1894 19.7168 4.33303 21.679 6.31097L21.6869 6.31884C21.6829 6.3149 21.6829 6.3149 21.679 6.31097C21.6829 6.3149 21.6829 6.3149 21.6829 6.3149L21.6869 6.31884C23.6652 8.28103 24.8124 10.9318 24.8837 13.717C24.9038 14.55 24.8189 15.3834 24.7581 15.6494C24.6894 15.9508 24.878 16.2514 25.179 16.321L26.2706 16.573C26.5716 16.6421 26.8713 16.454 26.9399 16.153C27.0423 15.705 27.1456 14.6838 27.1228 13.6618C27.0357 10.2988 25.655 7.09847 23.2654 4.73247C23.2654 4.73247 23.2654 4.73247 23.2614 4.72853L23.2654 4.73247C20.8998 2.34284 17.6991 0.962089 14.3404 0.878964C13.741 0.864527 13.1434 0.893839 13.1075 0.898214C12.8008 0.935839 12.5746 1.21584 12.6026 1.5234ZM23.2614 4.72853C23.2654 4.73247 23.2654 4.73247 23.2654 4.73247L23.2614 4.72853Z" fill="black"/>
</g>
<defs>
<clipPath id="clip0_1206_79">
<rect width="28" height="28" fill="white"/>
</clipPath>
</defs>
</svg>
