<svg width="19" height="18" viewBox="0 0 19 18" fill="none" xmlns="http://www.w3.org/2000/svg">
<path d="M0 2.0909C0 1.48483 0.212127 0.984833 0.636362 0.590907C1.0606 0.196963 1.61212 0 2.2909 0C2.95758 0 3.49696 0.193927 3.90908 0.581816C4.33332 0.981815 4.54545 1.50301 4.54545 2.14545C4.54545 2.72726 4.33939 3.2121 3.92726 3.59999C3.50303 3.99999 2.94545 4.19999 2.25454 4.19999H2.23636C1.56969 4.19999 1.03031 3.99999 0.618181 3.59999C0.206054 3.19999 0 2.69696 0 2.0909ZM0.236363 17.9999V5.85453H4.27272V17.9999H0.236363ZM6.50908 17.9999H10.5454V11.2181C10.5454 10.7939 10.5939 10.4666 10.6909 10.2363C10.8606 9.82421 11.1182 9.47572 11.4636 9.19088C11.8091 8.90603 12.2424 8.76361 12.7636 8.76361C14.1212 8.76361 14.8 9.67875 14.8 11.5091V17.9999H18.8363V11.0363C18.8363 9.24239 18.4121 7.88179 17.5636 6.95452C16.7151 6.02725 15.5939 5.56362 14.2 5.56362C12.6363 5.56362 11.4182 6.23634 10.5454 7.58179V7.61816H10.5273L10.5454 7.58179V5.85453H6.50908C6.53331 6.2424 6.54544 7.44845 6.54544 9.4727C6.54544 11.4969 6.53331 14.3393 6.50908 17.9999Z" fill="black"/>
</svg>
