<svg width="46" height="46" viewBox="0 0 46 46" fill="none" xmlns="http://www.w3.org/2000/svg">
<path d="M23 3.83325C18.9348 3.83782 15.0373 5.45476 12.1628 8.32932C9.28819 11.2039 7.67125 15.1013 7.66669 19.1666C7.66669 25.4053 12.1958 30.5861 16.9932 36.0697C18.5112 37.8062 20.0829 39.6021 21.482 41.4191C21.6611 41.6514 21.891 41.8395 22.1542 41.9689C22.4174 42.0983 22.7067 42.1656 23 42.1656C23.2933 42.1656 23.5827 42.0983 23.8458 41.9689C24.109 41.8395 24.339 41.6514 24.518 41.4191C25.9172 39.6021 27.4889 37.8062 29.0069 36.0697C33.8043 30.5861 38.3334 25.4053 38.3334 19.1666C38.3288 15.1013 36.7118 11.2039 33.8373 8.32932C30.9627 5.45476 27.0653 3.83782 23 3.83325ZM23 24.9166C21.8628 24.9166 20.7511 24.5794 19.8055 23.9475C18.8599 23.3157 18.1229 22.4177 17.6877 21.367C17.2525 20.3163 17.1386 19.1602 17.3605 18.0448C17.5824 16.9294 18.13 15.9049 18.9342 15.1007C19.7383 14.2966 20.7629 13.7489 21.8783 13.5271C22.9936 13.3052 24.1498 13.4191 25.2004 13.8543C26.2511 14.2895 27.1492 15.0265 27.781 15.9721C28.4128 16.9176 28.75 18.0293 28.75 19.1666C28.75 20.6916 28.1442 22.1541 27.0659 23.2325C25.9876 24.3108 24.525 24.9166 23 24.9166Z" fill="black"/>
</svg>
