<svg width="20" height="20" viewBox="0 0 20 20" fill="none" xmlns="http://www.w3.org/2000/svg">
<path d="M18.3334 4.83333C17.707 5.10507 17.0445 5.28471 16.3667 5.36666C17.0818 4.93943 17.6177 4.26731 17.875 3.47499C17.203 3.87504 16.4673 4.15691 15.7 4.30832C15.1871 3.75213 14.5042 3.38191 13.7582 3.2557C13.0122 3.1295 12.2455 3.25446 11.5782 3.61098C10.9109 3.96751 10.3808 4.53543 10.0711 5.22569C9.76131 5.91594 9.68943 6.68948 9.86669 7.42499C8.50788 7.35626 7.17872 7.00245 5.96557 6.38654C4.75241 5.77063 3.68239 4.9064 2.82502 3.84999C2.5243 4.37513 2.36629 4.96984 2.36669 5.57499C2.36562 6.13698 2.50353 6.69051 2.76815 7.1863C3.03276 7.68209 3.41587 8.10475 3.88335 8.41666C3.34 8.40187 2.80826 8.25607 2.33335 7.99166V8.03332C2.33743 8.82073 2.61335 9.58257 3.11445 10.19C3.61555 10.7974 4.31107 11.213 5.08335 11.3667C4.78607 11.4571 4.47742 11.5048 4.16669 11.5083C3.9516 11.5058 3.73704 11.4863 3.52502 11.45C3.74495 12.1273 4.17054 12.7193 4.74258 13.1435C5.31463 13.5676 6.00467 13.803 6.71669 13.8167C5.51436 14.7627 4.02992 15.279 2.50002 15.2833C2.22147 15.2842 1.94313 15.2675 1.66669 15.2333C3.22871 16.2419 5.04903 16.7773 6.90835 16.775C8.19143 16.7883 9.4643 16.5458 10.6526 16.0617C11.8409 15.5776 12.9209 14.8616 13.8294 13.9554C14.7378 13.0492 15.4567 11.9712 15.9438 10.7841C16.431 9.59701 16.6767 8.32476 16.6667 7.04166C16.6667 6.89999 16.6667 6.74999 16.6667 6.59999C17.3206 6.11233 17.8846 5.51451 18.3334 4.83333Z" fill="black"/>
</svg>
